<svg width="100%" height="100%" viewBox="-20 -10 800 105" xmlns="http://www.w3.org/2000/svg">
	<g id="icon" transform="translate(-14,14) scale(0.28)">
		<path fill="#fff" stroke-width="25" stroke-linejoin="round" stroke="#000"
			  d="M320 149.9l-75 129.9H95L20 149.9 95 20h150z"/>
		<path fill="#fff" d="M7 90h240v120H7z"/>
		<path fill="#f47c06" d="M7 140h163v20H7z"/>
	</g>

	<!--
	<g id="text" transform="translate(100,0)" stroke-linecap="round" fill-rule="evenodd" font-size="9pt" stroke="#000"
	   stroke-width="0.25mm"
	   fill="#000" style="display:none;">
		<path d="M 428.467 0 L 428.467 27.93 Q 434.277 21.191 443.164 21.191 A 21.091 21.091 0 0 1 450.346 22.314 Q 460.117 25.844 460.303 40.479 L 460.303 75 L 448.438 75 L 448.438 40.918 A 19.924 19.924 0 0 0 448.27 38.238 Q 447.853 35.173 446.393 33.516 A 5.56 5.56 0 0 0 446.069 33.179 A 7.523 7.523 0 0 0 443.146 31.476 Q 441.977 31.094 440.558 30.969 A 16.479 16.479 0 0 0 439.111 30.908 A 12.537 12.537 0 0 0 434.183 31.838 Q 431.246 33.08 429.253 35.981 A 15.574 15.574 0 0 0 428.467 37.256 L 428.467 75 L 416.602 75 L 416.602 0 L 428.467 0 Z M 406.055 38.037 L 394.189 38.037 A 7.503 7.503 0 0 0 393.408 34.598 A 7.655 7.655 0 0 0 391.65 32.349 A 8.654 8.654 0 0 0 387.716 30.371 A 12.683 12.683 0 0 0 384.912 30.078 A 13.822 13.822 0 0 0 382.185 30.332 Q 380.509 30.67 379.189 31.455 A 8.175 8.175 0 0 0 378.54 31.885 Q 376.161 33.628 376.077 36.507 A 7.279 7.279 0 0 0 376.074 36.719 Q 376.074 39.255 378.049 40.741 A 6.312 6.312 0 0 0 378.369 40.967 A 9.76 9.76 0 0 0 379.81 41.725 Q 382.41 42.865 387.646 44.019 A 69.438 69.438 0 0 1 391.717 45.037 Q 393.762 45.619 395.464 46.269 A 27.599 27.599 0 0 1 398.608 47.681 Q 402.219 49.608 404.141 52.238 A 11.718 11.718 0 0 1 404.517 52.783 A 11.788 11.788 0 0 1 406.196 57.12 A 16.058 16.058 0 0 1 406.445 60.01 A 13.548 13.548 0 0 1 401.924 70.408 A 17.675 17.675 0 0 1 400.537 71.558 A 21.11 21.11 0 0 1 392.98 75.069 Q 390.067 75.806 386.658 75.945 A 39.49 39.49 0 0 1 385.059 75.977 A 30.76 30.76 0 0 1 378.738 75.353 A 24.468 24.468 0 0 1 373.486 73.633 A 20.946 20.946 0 0 1 368.725 70.646 A 17.581 17.581 0 0 1 365.576 67.187 A 15.686 15.686 0 0 1 363.035 61.319 A 15.094 15.094 0 0 1 362.744 58.35 L 374.268 58.35 A 10.216 10.216 0 0 0 374.828 61.228 A 7.799 7.799 0 0 0 377.441 64.819 A 10.287 10.287 0 0 0 381.2 66.62 Q 382.667 67.002 384.394 67.073 A 19.576 19.576 0 0 0 385.205 67.09 A 19.752 19.752 0 0 0 387.853 66.924 Q 389.158 66.747 390.224 66.381 A 7.914 7.914 0 0 0 392.334 65.308 A 6.269 6.269 0 0 0 393.892 63.713 A 5.433 5.433 0 0 0 394.775 60.645 A 6.095 6.095 0 0 0 394.393 58.436 Q 393.824 56.96 392.409 55.974 A 6.928 6.928 0 0 0 392.163 55.811 Q 390.009 54.442 385.515 53.338 A 60.909 60.909 0 0 0 383.496 52.881 Q 378.742 51.884 375.222 50.466 A 30.36 30.36 0 0 1 373.389 49.658 A 20.441 20.441 0 0 1 369.093 46.936 A 12.193 12.193 0 0 1 364.502 37.207 Q 364.502 30.371 370.264 25.781 Q 376.025 21.191 384.912 21.191 A 31.174 31.174 0 0 1 391.442 21.837 Q 395.732 22.756 399.007 24.982 A 18.9 18.9 0 0 1 400.22 25.879 A 15.573 15.573 0 0 1 404.503 31.073 Q 406.03 34.136 406.054 37.917 A 19.041 19.041 0 0 1 406.055 38.037 Z M 100 75 L 87.891 75 Q 87.246 73.752 86.735 71.209 A 40.514 40.514 0 0 1 86.523 70.068 A 18.423 18.423 0 0 1 73.166 75.971 A 22.455 22.455 0 0 1 72.656 75.977 A 22.778 22.778 0 0 1 66.779 75.256 A 16.956 16.956 0 0 1 59.668 71.436 A 15.096 15.096 0 0 1 55.753 66.027 A 14.978 14.978 0 0 1 54.639 60.205 A 18.076 18.076 0 0 1 55.485 54.532 A 14.345 14.345 0 0 1 60.913 47.241 Q 67.188 42.725 78.857 42.725 L 86.133 42.725 L 86.133 39.258 Q 86.133 35.156 83.838 32.69 A 7.165 7.165 0 0 0 80.78 30.785 Q 79.618 30.4 78.199 30.279 A 15.907 15.907 0 0 0 76.855 30.225 A 13.271 13.271 0 0 0 73.926 30.531 A 9.232 9.232 0 0 0 70.215 32.251 A 7.054 7.054 0 0 0 68.515 34.117 A 6.173 6.173 0 0 0 67.627 37.402 L 55.762 37.402 A 12.876 12.876 0 0 1 57.948 30.257 A 16.331 16.331 0 0 1 58.643 29.272 A 18.192 18.192 0 0 1 63.993 24.597 A 22.974 22.974 0 0 1 66.479 23.34 A 26.106 26.106 0 0 1 74.197 21.361 A 32.142 32.142 0 0 1 77.539 21.191 A 29.922 29.922 0 0 1 83.691 21.787 Q 87.514 22.59 90.464 24.477 A 17.484 17.484 0 0 1 92.334 25.854 A 15.565 15.565 0 0 1 97.634 35.213 A 22.671 22.671 0 0 1 97.998 38.965 L 97.998 62.793 A 41.459 41.459 0 0 0 98.214 67.161 Q 98.445 69.336 98.923 71.154 A 17.54 17.54 0 0 0 100 74.17 L 100 75 Z M 354.736 75 L 342.627 75 Q 341.983 73.752 341.471 71.209 A 40.514 40.514 0 0 1 341.26 70.068 A 18.423 18.423 0 0 1 327.903 75.971 A 22.455 22.455 0 0 1 327.393 75.977 A 22.778 22.778 0 0 1 321.515 75.256 A 16.956 16.956 0 0 1 314.404 71.436 A 15.096 15.096 0 0 1 310.489 66.027 A 14.978 14.978 0 0 1 309.375 60.205 A 18.076 18.076 0 0 1 310.221 54.532 A 14.345 14.345 0 0 1 315.649 47.241 Q 321.924 42.725 333.594 42.725 L 340.869 42.725 L 340.869 39.258 Q 340.869 35.156 338.574 32.69 A 7.165 7.165 0 0 0 335.516 30.785 Q 334.354 30.4 332.935 30.279 A 15.907 15.907 0 0 0 331.592 30.225 A 13.271 13.271 0 0 0 328.663 30.531 A 9.232 9.232 0 0 0 324.951 32.251 A 7.054 7.054 0 0 0 323.252 34.117 A 6.173 6.173 0 0 0 322.363 37.402 L 310.498 37.402 A 12.876 12.876 0 0 1 312.684 30.257 A 16.331 16.331 0 0 1 313.379 29.272 A 18.192 18.192 0 0 1 318.729 24.597 A 22.974 22.974 0 0 1 321.216 23.34 A 26.106 26.106 0 0 1 328.933 21.361 A 32.142 32.142 0 0 1 332.275 21.191 A 29.922 29.922 0 0 1 338.427 21.787 Q 342.25 22.59 345.201 24.477 A 17.484 17.484 0 0 1 347.07 25.854 A 15.565 15.565 0 0 1 352.371 35.213 A 22.671 22.671 0 0 1 352.734 38.965 L 352.734 62.793 A 41.459 41.459 0 0 0 352.95 67.161 Q 353.181 69.336 353.66 71.154 A 17.54 17.54 0 0 0 354.736 74.17 L 354.736 75 Z M 286.816 27.051 L 286.816 0 L 298.682 0 L 298.682 75 L 287.939 75 L 287.354 69.531 Q 282.031 75.977 273.145 75.977 Q 263.867 75.977 258.13 68.506 A 25.804 25.804 0 0 1 253.838 59.732 Q 252.393 54.639 252.393 48.193 A 42.774 42.774 0 0 1 253.124 40.041 Q 254.428 33.328 258.057 28.589 A 17.923 17.923 0 0 1 271.064 21.293 A 22.891 22.891 0 0 1 273.242 21.191 A 19.536 19.536 0 0 1 279.755 22.234 A 16.696 16.696 0 0 1 286.816 27.051 Z M 46.289 48.389 L 46.289 49.121 Q 46.289 58.645 42.928 65.176 A 23.474 23.474 0 0 1 40.723 68.677 Q 35.156 75.977 25.781 75.977 A 21.435 21.435 0 0 1 19.52 75.105 A 16.842 16.842 0 0 1 11.865 70.264 L 11.865 95.313 L 0 95.313 L 0 22.168 L 10.938 22.168 L 11.426 27.539 Q 16.65 21.191 25.635 21.191 A 20.813 20.813 0 0 1 32.551 22.29 A 17.507 17.507 0 0 1 40.796 28.394 A 24.519 24.519 0 0 1 44.727 36.336 Q 45.752 39.769 46.105 43.887 A 52.846 52.846 0 0 1 46.289 48.389 Z M 156.689 48.389 L 156.689 49.121 Q 156.689 58.645 153.328 65.176 A 23.474 23.474 0 0 1 151.123 68.677 Q 145.557 75.977 136.182 75.977 A 21.435 21.435 0 0 1 129.92 75.105 A 16.842 16.842 0 0 1 122.266 70.264 L 122.266 95.313 L 110.4 95.313 L 110.4 22.168 L 121.338 22.168 L 121.826 27.539 Q 127.051 21.191 136.035 21.191 A 20.813 20.813 0 0 1 142.951 22.29 A 17.507 17.507 0 0 1 151.196 28.394 A 24.519 24.519 0 0 1 155.128 36.336 Q 156.153 39.769 156.505 43.887 A 52.846 52.846 0 0 1 156.689 48.389 Z M 164.697 49.951 L 164.697 48.486 A 35.138 35.138 0 0 1 165.559 40.557 A 28.761 28.761 0 0 1 167.749 34.351 A 24.03 24.03 0 0 1 172.963 27.23 A 22.547 22.547 0 0 1 176.318 24.658 A 22.655 22.655 0 0 1 188.623 21.191 A 27.141 27.141 0 0 1 195.462 22.005 A 18.839 18.839 0 0 1 205.298 28.076 Q 210.245 33.865 211.033 43.693 A 48.424 48.424 0 0 1 211.182 47.559 L 211.182 52.344 L 176.66 52.344 A 20.067 20.067 0 0 0 177.554 56.953 A 14.162 14.162 0 0 0 181.03 62.695 A 12.964 12.964 0 0 0 189.911 66.487 A 17.149 17.149 0 0 0 190.674 66.504 A 15.867 15.867 0 0 0 202.755 61.321 A 20.296 20.296 0 0 0 203.955 59.912 L 210.352 66.016 Q 207.178 70.752 201.88 73.364 Q 196.582 75.977 189.99 75.977 A 29.112 29.112 0 0 1 181.531 74.804 A 22.906 22.906 0 0 1 171.704 68.872 A 23.847 23.847 0 0 1 165.221 56.061 A 34.105 34.105 0 0 1 164.697 49.951 Z M 248.096 21.875 L 248.047 33.008 Q 245.703 32.617 243.213 32.617 A 16.323 16.323 0 0 0 239.054 33.11 A 9.921 9.921 0 0 0 232.227 38.867 L 232.227 75 L 220.361 75 L 220.361 22.168 L 231.689 22.168 L 231.982 28.076 Q 236.274 21.2 243.877 21.191 A 17.013 17.013 0 0 1 243.896 21.191 Q 245.827 21.191 247.249 21.586 A 7.481 7.481 0 0 1 248.096 21.875 Z M 523.535 48.682 L 523.535 48.096 A 33.799 33.799 0 0 1 524.508 39.848 A 28.661 28.661 0 0 1 526.611 34.106 A 23.459 23.459 0 0 1 531.502 27.381 A 21.699 21.699 0 0 1 535.254 24.536 A 23.484 23.484 0 0 1 545.18 21.329 A 29.207 29.207 0 0 1 548.047 21.191 A 27.079 27.079 0 0 1 556.07 22.328 A 21.726 21.726 0 0 1 565.405 28.076 A 24.918 24.918 0 0 1 571.748 39.979 A 35.053 35.053 0 0 1 572.607 46.338 L 572.656 49.121 A 34.842 34.842 0 0 1 571.809 56.953 A 28.508 28.508 0 0 1 569.653 63.086 Q 566.65 69.238 561.06 72.607 A 23.518 23.518 0 0 1 551.32 75.81 A 29.532 29.532 0 0 1 548.145 75.977 A 27.135 27.135 0 0 1 539.943 74.794 A 21.601 21.601 0 0 1 530.249 68.53 A 25.308 25.308 0 0 1 524.405 56.966 A 37.314 37.314 0 0 1 523.535 48.682 Z M 512.842 22.168 L 512.842 75 L 500.977 75 L 500.977 22.168 L 512.842 22.168 Z M 535.4 49.121 A 31.886 31.886 0 0 0 535.763 54.091 Q 536.179 56.725 537.074 58.856 A 14.884 14.884 0 0 0 538.77 61.89 A 10.725 10.725 0 0 0 546.508 66.413 A 14.306 14.306 0 0 0 548.145 66.504 A 12.307 12.307 0 0 0 552.431 65.789 Q 555.457 64.673 557.495 61.816 A 15.512 15.512 0 0 0 559.598 57.491 Q 560.258 55.424 560.567 52.902 A 39.589 39.589 0 0 0 560.84 48.096 A 30.182 30.182 0 0 0 560.438 43.01 Q 559.966 40.253 558.94 38.03 A 15.16 15.16 0 0 0 557.397 35.4 A 11.396 11.396 0 0 0 553.52 31.978 Q 551.304 30.812 548.522 30.721 A 14.525 14.525 0 0 0 548.047 30.713 Q 542.236 30.713 538.818 35.327 A 14.897 14.897 0 0 0 536.686 39.579 Q 535.4 43.491 535.4 49.121 Z M 11.865 36.914 L 11.865 60.352 A 11.606 11.606 0 0 0 15.084 64.278 Q 17.344 65.999 20.492 66.39 A 15.61 15.61 0 0 0 22.412 66.504 A 11.22 11.22 0 0 0 26.68 65.721 Q 29.23 64.683 31.037 62.267 A 13.096 13.096 0 0 0 31.274 61.938 A 14.719 14.719 0 0 0 33.16 58.049 Q 34.388 54.297 34.467 48.854 A 52.153 52.153 0 0 0 34.473 48.096 Q 34.473 42.402 32.841 38.403 A 15.474 15.474 0 0 0 31.323 35.547 A 10.019 10.019 0 0 0 24.079 31.021 A 13.348 13.348 0 0 0 22.314 30.908 A 13.693 13.693 0 0 0 17.993 31.551 Q 14.126 32.832 12.001 36.664 A 14.126 14.126 0 0 0 11.865 36.914 Z M 122.266 36.914 L 122.266 60.352 A 11.606 11.606 0 0 0 125.485 64.278 Q 127.745 65.999 130.892 66.39 A 15.61 15.61 0 0 0 132.813 66.504 A 11.22 11.22 0 0 0 137.08 65.721 Q 139.631 64.683 141.437 62.267 A 13.096 13.096 0 0 0 141.675 61.938 A 14.719 14.719 0 0 0 143.56 58.049 Q 144.788 54.297 144.868 48.854 A 52.153 52.153 0 0 0 144.873 48.096 Q 144.873 42.402 143.241 38.403 A 15.474 15.474 0 0 0 141.724 35.547 A 10.019 10.019 0 0 0 134.48 31.021 A 13.348 13.348 0 0 0 132.715 30.908 A 13.693 13.693 0 0 0 128.394 31.551 Q 124.526 32.832 122.401 36.664 A 14.126 14.126 0 0 0 122.266 36.914 Z M 286.816 59.814 L 286.816 37.256 A 12.276 12.276 0 0 0 283.874 33.45 Q 281.436 31.385 277.94 30.998 A 15.169 15.169 0 0 0 276.27 30.908 A 11.553 11.553 0 0 0 272.189 31.598 Q 269.293 32.683 267.383 35.474 Q 264.387 39.851 264.263 48.469 A 52.274 52.274 0 0 0 264.258 49.219 A 34.036 34.036 0 0 0 264.561 53.908 Q 264.904 56.372 265.637 58.391 A 15.056 15.056 0 0 0 267.358 61.792 A 9.852 9.852 0 0 0 274.45 66.198 A 13.049 13.049 0 0 0 276.172 66.309 Q 282.701 66.309 286.084 61.079 A 15.287 15.287 0 0 0 286.816 59.814 Z M 176.855 43.652 L 199.463 43.652 L 199.463 42.773 Q 199.199 38.744 197.84 36.044 A 10.089 10.089 0 0 0 196.289 33.765 A 9.128 9.128 0 0 0 191.111 30.941 A 13.439 13.439 0 0 0 188.574 30.713 A 11.314 11.314 0 0 0 184.789 31.321 A 9.682 9.682 0 0 0 180.688 34.131 Q 177.686 37.549 176.855 43.652 Z M 86.133 60.156 L 86.133 50.195 L 79.736 50.195 A 30.591 30.591 0 0 0 76.287 50.377 Q 72.435 50.815 70.092 52.313 A 8.876 8.876 0 0 0 69.824 52.49 A 7.285 7.285 0 0 0 66.585 57.719 A 9.599 9.599 0 0 0 66.504 58.984 A 8.304 8.304 0 0 0 66.85 61.442 A 6.506 6.506 0 0 0 68.774 64.429 A 7.71 7.71 0 0 0 72.188 66.164 Q 73.334 66.437 74.674 66.454 A 14.113 14.113 0 0 0 74.854 66.455 A 13.497 13.497 0 0 0 81.47 64.746 Q 84.57 63.037 86.133 60.156 Z M 340.869 60.156 L 340.869 50.195 L 334.473 50.195 A 30.591 30.591 0 0 0 331.024 50.377 Q 327.171 50.815 324.828 52.313 A 8.876 8.876 0 0 0 324.561 52.49 A 7.285 7.285 0 0 0 321.321 57.719 A 9.599 9.599 0 0 0 321.24 58.984 A 8.304 8.304 0 0 0 321.587 61.442 A 6.506 6.506 0 0 0 323.511 64.429 A 7.71 7.71 0 0 0 326.924 66.164 Q 328.07 66.437 329.41 66.454 A 14.113 14.113 0 0 0 329.59 66.455 A 13.497 13.497 0 0 0 336.206 64.746 Q 339.307 63.037 340.869 60.156 Z M 481.748 62.712 A 9.4 9.4 0 0 0 479.687 62.5 A 11.216 11.216 0 0 0 479.541 62.501 Q 476.375 62.542 474.609 64.38 A 6.262 6.262 0 0 0 473.174 66.721 A 7.303 7.303 0 0 0 472.803 69.092 A 8.16 8.16 0 0 0 472.825 69.699 A 6.058 6.058 0 0 0 474.658 73.73 A 6.155 6.155 0 0 0 477.577 75.304 A 9.02 9.02 0 0 0 479.688 75.537 Q 483.008 75.537 484.814 73.706 A 6.064 6.064 0 0 0 486.25 71.419 A 7.034 7.034 0 0 0 486.621 69.092 A 8.479 8.479 0 0 0 486.605 68.569 A 6.416 6.416 0 0 0 484.814 64.38 A 5.571 5.571 0 0 0 484.168 63.803 Q 483.144 63.026 481.748 62.712 Z M 500.597 6.169 A 7.081 7.081 0 0 0 500.244 8.447 A 8.007 8.007 0 0 0 500.255 8.861 A 6.063 6.063 0 0 0 501.978 12.915 A 5.28 5.28 0 0 0 502.814 13.614 Q 503.745 14.241 504.979 14.505 A 9.347 9.347 0 0 0 506.934 14.697 A 11.243 11.243 0 0 0 507.271 14.692 Q 510.249 14.603 511.914 12.915 A 5.917 5.917 0 0 0 513.292 10.749 A 6.738 6.738 0 0 0 513.672 8.447 A 8.12 8.12 0 0 0 513.656 7.943 A 6.141 6.141 0 0 0 511.914 3.906 A 5.408 5.408 0 0 0 511.248 3.325 Q 510.265 2.599 508.934 2.303 A 9.217 9.217 0 0 0 506.934 2.1 A 11.115 11.115 0 0 0 506.622 2.104 Q 505.542 2.134 504.638 2.377 A 5.614 5.614 0 0 0 501.978 3.906 A 6.014 6.014 0 0 0 500.597 6.169 Z"/>
	</g>
	-->

	<g id="text" transform="translate(100,0)" stroke-linecap="round" fill-rule="evenodd" font-size="9pt"
	   stroke="#000" stroke-width="0.25mm"
	   fill="#000">
		<path d="M 414.404 0 L 414.404 31.104 Q 417.285 26.367 421.777 23.779 Q 426.27 21.191 431.592 21.191 A 23.918 23.918 0 0 1 436.422 21.647 Q 439.282 22.237 441.447 23.592 A 12.325 12.325 0 0 1 444.238 25.977 A 15.145 15.145 0 0 1 447.048 30.972 Q 448.41 34.874 448.438 40.332 L 448.438 75 L 442.627 75 L 442.627 40.283 A 27.558 27.558 0 0 0 442.37 36.586 Q 441.747 32.228 439.624 29.736 Q 437.162 26.848 432.243 26.366 A 21.232 21.232 0 0 0 430.176 26.27 A 14.779 14.779 0 0 0 420.581 29.663 A 18.898 18.898 0 0 0 415.541 36.086 A 24.055 24.055 0 0 0 414.404 38.818 L 414.404 75 L 408.594 75 L 408.594 0 L 414.404 0 Z M 395.166 36.963 L 389.307 36.963 A 9.277 9.277 0 0 0 386.228 29.94 A 12.626 12.626 0 0 0 385.425 29.248 A 13.971 13.971 0 0 0 379.212 26.487 A 19.41 19.41 0 0 0 375.635 26.172 A 21.076 21.076 0 0 0 371.825 26.496 Q 368.632 27.083 366.382 28.735 A 9.076 9.076 0 0 0 364.187 30.973 A 7.749 7.749 0 0 0 362.891 35.4 A 8.591 8.591 0 0 0 363.299 38.116 A 6.901 6.901 0 0 0 365.796 41.528 A 12.464 12.464 0 0 0 367.775 42.705 Q 369.987 43.788 373.506 44.77 A 71.909 71.909 0 0 0 376.392 45.508 A 89.751 89.751 0 0 1 380.618 46.602 Q 384.555 47.732 387.096 48.951 A 20.807 20.807 0 0 1 387.915 49.365 A 18.879 18.879 0 0 1 390.703 51.168 Q 392.502 52.586 393.604 54.297 A 11.437 11.437 0 0 1 395.219 58.489 A 15.57 15.57 0 0 1 395.459 61.279 Q 395.459 67.745 390.418 71.702 A 16.471 16.471 0 0 1 390.063 71.973 A 19.354 19.354 0 0 1 383.176 75.154 Q 379.915 75.977 375.977 75.977 A 31.094 31.094 0 0 1 369.577 75.355 Q 365.462 74.489 362.288 72.42 A 18.713 18.713 0 0 1 361.011 71.509 Q 355.273 67.041 355.273 60.205 L 361.133 60.205 Q 361.475 65.332 365.454 68.188 A 14.28 14.28 0 0 0 370.157 70.353 Q 372.106 70.872 374.405 71.002 A 27.892 27.892 0 0 0 375.977 71.045 Q 380.858 71.045 384.241 69.327 A 12.433 12.433 0 0 0 385.84 68.359 A 10.171 10.171 0 0 0 387.98 66.346 A 7.562 7.562 0 0 0 389.6 61.572 Q 389.6 57.369 386.333 54.764 A 10.827 10.827 0 0 0 386.108 54.59 A 16.287 16.287 0 0 0 383.29 52.913 Q 380.396 51.535 376.166 50.59 A 54.116 54.116 0 0 0 375.586 50.464 A 78.007 78.007 0 0 1 371.499 49.49 Q 367.342 48.372 364.673 47.046 Q 361.308 45.374 359.448 43.061 A 10.85 10.85 0 0 1 358.911 42.334 A 10.834 10.834 0 0 1 357.224 38.009 A 14.54 14.54 0 0 1 357.031 35.596 Q 357.031 29.346 362.256 25.269 A 18.73 18.73 0 0 1 369.931 21.765 A 26.913 26.913 0 0 1 375.635 21.191 A 29.1 29.1 0 0 1 381.536 21.756 Q 385.293 22.534 388.194 24.385 A 17.121 17.121 0 0 1 389.819 25.562 A 13.891 13.891 0 0 1 395.119 35.668 A 17.566 17.566 0 0 1 395.166 36.963 Z M 95.068 75 L 88.818 75 Q 87.939 72.51 87.695 67.627 A 20.376 20.376 0 0 1 79.858 73.804 A 24.002 24.002 0 0 1 69.775 75.977 A 22.255 22.255 0 0 1 64.369 75.354 A 15.924 15.924 0 0 1 57.446 71.729 A 13.741 13.741 0 0 1 52.753 61.789 A 17.342 17.342 0 0 1 52.734 60.986 Q 52.734 53.7 58.462 49.288 A 18.748 18.748 0 0 1 59.155 48.779 Q 64.146 45.288 72.189 44.51 A 50.567 50.567 0 0 1 77.051 44.287 L 87.646 44.287 L 87.646 38.281 A 14.824 14.824 0 0 0 87.196 34.522 A 10.512 10.512 0 0 0 84.155 29.37 A 11.177 11.177 0 0 0 79.884 26.941 Q 78.17 26.391 76.091 26.211 A 24.499 24.499 0 0 0 73.975 26.123 A 19.596 19.596 0 0 0 69.362 26.639 A 14.254 14.254 0 0 0 63.867 29.248 A 11.853 11.853 0 0 0 61.547 31.602 A 8.577 8.577 0 0 0 59.863 36.768 L 54.004 36.719 Q 54.004 30.42 59.863 25.806 A 21.35 21.35 0 0 1 70.286 21.462 A 28.392 28.392 0 0 1 74.268 21.191 A 28.594 28.594 0 0 1 79.902 21.714 Q 83.31 22.399 85.958 23.984 A 15.913 15.913 0 0 1 88.208 25.61 A 14.823 14.823 0 0 1 93.106 34.368 A 21.53 21.53 0 0 1 93.457 37.939 L 93.457 62.939 A 58.552 58.552 0 0 0 93.584 66.946 Q 93.85 70.799 94.667 73.329 A 13.19 13.19 0 0 0 95.068 74.414 L 95.068 75 Z M 343.994 75 L 337.744 75 Q 336.865 72.51 336.621 67.627 A 20.376 20.376 0 0 1 328.784 73.804 A 24.002 24.002 0 0 1 318.701 75.977 A 22.255 22.255 0 0 1 313.295 75.354 A 15.924 15.924 0 0 1 306.372 71.729 A 13.741 13.741 0 0 1 301.679 61.789 A 17.342 17.342 0 0 1 301.66 60.986 Q 301.66 53.7 307.388 49.288 A 18.748 18.748 0 0 1 308.081 48.779 Q 313.072 45.288 321.115 44.51 A 50.567 50.567 0 0 1 325.977 44.287 L 336.572 44.287 L 336.572 38.281 A 14.824 14.824 0 0 0 336.121 34.522 A 10.512 10.512 0 0 0 333.081 29.37 A 11.177 11.177 0 0 0 328.81 26.941 Q 327.096 26.391 325.017 26.211 A 24.499 24.499 0 0 0 322.9 26.123 A 19.596 19.596 0 0 0 318.288 26.639 A 14.254 14.254 0 0 0 312.793 29.248 A 11.853 11.853 0 0 0 310.473 31.602 A 8.577 8.577 0 0 0 308.789 36.768 L 302.93 36.719 Q 302.93 30.42 308.789 25.806 A 21.35 21.35 0 0 1 319.212 21.462 A 28.392 28.392 0 0 1 323.193 21.191 A 28.594 28.594 0 0 1 328.828 21.714 Q 332.236 22.399 334.884 23.984 A 15.913 15.913 0 0 1 337.134 25.61 A 14.823 14.823 0 0 1 342.032 34.368 A 21.53 21.53 0 0 1 342.383 37.939 L 342.383 62.939 A 58.552 58.552 0 0 0 342.51 66.946 Q 342.776 70.799 343.593 73.329 A 13.19 13.19 0 0 0 343.994 74.414 L 343.994 75 Z M 246.484 48.779 L 246.484 48.096 Q 246.484 38.693 249.692 32.213 A 23.536 23.536 0 0 1 251.978 28.491 A 17.415 17.415 0 0 1 264.6 21.305 A 22.573 22.573 0 0 1 266.895 21.191 Q 277.588 21.191 283.203 29.639 L 283.203 0 L 289.014 0 L 289.014 75 L 283.545 75 L 283.301 67.969 Q 277.686 75.977 266.797 75.977 A 18.285 18.285 0 0 1 258.782 74.252 Q 255.197 72.532 252.439 69.094 A 23.019 23.019 0 0 1 252.075 68.628 Q 247.271 62.313 246.595 52.193 A 51.26 51.26 0 0 1 246.484 48.779 Z M 42.529 48.291 L 42.529 49.121 A 45.233 45.233 0 0 1 41.883 57.011 Q 41.112 61.359 39.421 64.848 A 23.284 23.284 0 0 1 37.061 68.726 Q 31.768 75.743 23 75.969 A 22.798 22.798 0 0 1 22.412 75.977 Q 11.572 75.977 5.811 68.359 L 5.811 95.313 L 0 95.313 L 0 22.168 L 5.42 22.168 L 5.713 29.639 Q 11.426 21.191 22.266 21.191 A 20.027 20.027 0 0 1 29.167 22.331 A 17.237 17.237 0 0 1 37.134 28.369 Q 41.439 34.096 42.309 43.366 A 52.738 52.738 0 0 1 42.529 48.291 Z M 151.514 48.291 L 151.514 49.121 A 45.233 45.233 0 0 1 150.867 57.011 Q 150.096 61.359 148.405 64.848 A 23.284 23.284 0 0 1 146.045 68.726 Q 140.752 75.743 131.984 75.969 A 22.798 22.798 0 0 1 131.396 75.977 Q 120.557 75.977 114.795 68.359 L 114.795 95.313 L 108.984 95.313 L 108.984 22.168 L 114.404 22.168 L 114.697 29.639 Q 120.41 21.191 131.25 21.191 A 20.027 20.027 0 0 1 138.151 22.331 A 17.237 17.237 0 0 1 146.118 28.369 Q 150.423 34.096 151.293 43.366 A 52.738 52.738 0 0 1 151.514 48.291 Z M 161.23 50.098 L 161.23 47.998 A 33.827 33.827 0 0 1 162.165 39.908 A 28.471 28.471 0 0 1 164.185 34.277 A 24.465 24.465 0 0 1 169.061 27.392 A 22.569 22.569 0 0 1 172.412 24.683 A 20.297 20.297 0 0 1 183.838 21.191 A 22.69 22.69 0 0 1 190.746 22.194 A 18.031 18.031 0 0 1 199.097 27.759 A 22.112 22.112 0 0 1 203.578 36.38 Q 204.736 40.548 204.736 45.703 L 204.736 48.975 L 167.041 48.975 L 167.041 50.098 A 25.792 25.792 0 0 0 168.009 57.324 A 20.478 20.478 0 0 0 172.192 65.063 A 17.116 17.116 0 0 0 178.11 69.596 A 16.885 16.885 0 0 0 185.156 71.045 A 21.85 21.85 0 0 0 189.504 70.631 A 16.923 16.923 0 0 0 193.433 69.336 A 16.436 16.436 0 0 0 197.462 66.584 A 22 22 0 0 0 199.951 63.867 L 203.613 66.65 A 20.677 20.677 0 0 1 188.6 75.749 A 28.949 28.949 0 0 1 184.912 75.977 A 23.474 23.474 0 0 1 175.804 74.224 A 22.49 22.49 0 0 1 172.729 72.656 Q 167.285 69.336 164.258 63.403 A 27.892 27.892 0 0 1 161.355 53.034 A 33.923 33.923 0 0 1 161.23 50.098 Z M 506.543 48.975 L 506.543 47.803 A 33.827 33.827 0 0 1 507.478 39.712 A 28.471 28.471 0 0 1 509.497 34.082 A 23.293 23.293 0 0 1 514.569 27.104 A 21.873 21.873 0 0 1 517.847 24.585 Q 523.242 21.191 530.078 21.191 A 24.408 24.408 0 0 1 538.403 22.557 A 21.145 21.145 0 0 1 547.168 28.589 Q 553.711 35.986 553.711 48.193 L 553.711 49.414 A 34.193 34.193 0 0 1 552.776 57.552 A 28.638 28.638 0 0 1 550.757 63.208 A 23.23 23.23 0 0 1 546.259 69.634 A 21.126 21.126 0 0 1 542.432 72.656 A 22.358 22.358 0 0 1 531.978 75.918 A 27.369 27.369 0 0 1 530.176 75.977 A 24.209 24.209 0 0 1 521.742 74.561 A 21.275 21.275 0 0 1 513.11 68.579 A 25.278 25.278 0 0 1 507.391 57.127 A 37.075 37.075 0 0 1 506.543 48.975 Z M 240.674 21.826 L 240.527 27.148 A 20.856 20.856 0 0 0 237.734 26.834 A 24.572 24.572 0 0 0 236.572 26.807 Q 231.104 26.807 227.319 29.858 A 14.645 14.645 0 0 0 223.592 34.455 Q 222.578 36.36 221.924 38.721 L 221.924 75 L 216.113 75 L 216.113 22.168 L 221.826 22.168 L 221.924 30.566 A 18.475 18.475 0 0 1 225.674 25.326 Q 229.466 21.708 235.153 21.256 A 20.989 20.989 0 0 1 236.816 21.191 Q 239.258 21.191 240.674 21.826 Z M 512.402 48.34 L 512.402 49.414 A 30.014 30.014 0 0 0 513.151 56.297 A 21.392 21.392 0 0 0 517.31 64.966 Q 522.217 71.045 530.176 71.045 A 16.654 16.654 0 0 0 536.932 69.709 A 16.035 16.035 0 0 0 542.993 64.966 A 21.206 21.206 0 0 0 547.027 56.639 Q 547.9 53.128 547.9 48.926 L 547.9 47.803 A 28.379 28.379 0 0 0 546.979 40.466 A 24.904 24.904 0 0 0 545.654 36.719 Q 543.408 31.689 539.355 28.931 Q 535.303 26.172 530.078 26.172 A 16.098 16.098 0 0 0 522.812 27.789 Q 519.744 29.314 517.353 32.277 A 20.375 20.375 0 0 0 517.334 32.3 Q 512.543 38.253 512.406 47.777 A 39.202 39.202 0 0 0 512.402 48.34 Z M 5.811 36.377 L 5.811 61.719 A 16.69 16.69 0 0 0 8.696 66.095 A 14.691 14.691 0 0 0 11.816 68.652 A 16.102 16.102 0 0 0 17.857 70.811 A 21.038 21.038 0 0 0 21.045 71.045 A 14.735 14.735 0 0 0 26.5 70.074 Q 30.094 68.655 32.544 65.161 A 19.677 19.677 0 0 0 35.138 59.756 Q 35.952 57.181 36.333 54.051 A 49.338 49.338 0 0 0 36.67 48.096 Q 36.67 40.82 34.519 35.745 A 19.179 19.179 0 0 0 32.52 32.129 A 13.15 13.15 0 0 0 23.024 26.392 A 17.163 17.163 0 0 0 20.947 26.27 A 18.648 18.648 0 0 0 16.281 26.829 A 14.712 14.712 0 0 0 11.719 28.857 A 15.312 15.312 0 0 0 7.067 33.855 A 19.959 19.959 0 0 0 5.811 36.377 Z M 114.795 36.377 L 114.795 61.719 A 16.69 16.69 0 0 0 117.68 66.095 A 14.691 14.691 0 0 0 120.801 68.652 A 16.102 16.102 0 0 0 126.841 70.811 A 21.038 21.038 0 0 0 130.029 71.045 A 14.735 14.735 0 0 0 135.484 70.074 Q 139.079 68.655 141.528 65.161 A 19.677 19.677 0 0 0 144.122 59.756 Q 144.936 57.181 145.318 54.051 A 49.338 49.338 0 0 0 145.654 48.096 Q 145.654 40.82 143.504 35.745 A 19.179 19.179 0 0 0 141.504 32.129 A 13.15 13.15 0 0 0 132.009 26.392 A 17.163 17.163 0 0 0 129.932 26.27 A 18.648 18.648 0 0 0 125.265 26.829 A 14.712 14.712 0 0 0 120.703 28.857 A 15.312 15.312 0 0 0 116.052 33.855 A 19.959 19.959 0 0 0 114.795 36.377 Z M 283.203 61.377 L 283.203 36.572 Q 278.92 26.854 269.162 26.303 A 21.156 21.156 0 0 0 267.969 26.27 Q 260.665 26.27 256.572 31.947 A 16.638 16.638 0 0 0 256.494 32.056 A 19.103 19.103 0 0 0 253.935 37.352 Q 253.122 39.911 252.737 43.044 A 50.026 50.026 0 0 0 252.393 49.121 Q 252.393 56.257 254.413 61.264 A 19.278 19.278 0 0 0 256.445 65.063 A 12.854 12.854 0 0 0 265.648 70.756 A 16.852 16.852 0 0 0 267.871 70.898 A 18.941 18.941 0 0 0 274.28 69.873 Q 279.418 68.037 282.396 62.909 A 21.333 21.333 0 0 0 283.203 61.377 Z M 493.896 22.168 L 493.896 75 L 488.037 75 L 488.037 22.168 L 493.896 22.168 Z M 87.646 60.4 L 87.646 48.779 L 77.197 48.779 Q 68.457 48.877 63.525 51.978 A 11.645 11.645 0 0 0 60.667 54.444 A 9.27 9.27 0 0 0 58.594 60.498 A 9.775 9.775 0 0 0 59.524 64.792 A 9.796 9.796 0 0 0 61.89 67.871 A 11.352 11.352 0 0 0 67.356 70.515 A 16.068 16.068 0 0 0 70.459 70.801 A 20.706 20.706 0 0 0 77.137 69.749 A 18.676 18.676 0 0 0 80.933 67.969 Q 85.547 65.137 87.646 60.4 Z M 336.572 60.4 L 336.572 48.779 L 326.123 48.779 Q 317.383 48.877 312.451 51.978 A 11.645 11.645 0 0 0 309.593 54.444 A 9.27 9.27 0 0 0 307.52 60.498 A 9.775 9.775 0 0 0 308.45 64.792 A 9.796 9.796 0 0 0 310.815 67.871 A 11.352 11.352 0 0 0 316.282 70.515 A 16.068 16.068 0 0 0 319.385 70.801 A 20.706 20.706 0 0 0 326.063 69.749 A 18.676 18.676 0 0 0 329.858 67.969 Q 334.473 65.137 336.572 60.4 Z M 167.236 43.994 L 198.926 43.994 L 198.926 43.359 A 24.204 24.204 0 0 0 198.146 37.841 A 17.331 17.331 0 0 0 194.58 30.957 A 13.299 13.299 0 0 0 184.86 26.201 A 17.642 17.642 0 0 0 183.838 26.172 A 14.551 14.551 0 0 0 173.157 30.563 A 17.777 17.777 0 0 0 172.729 31.006 A 19.596 19.596 0 0 0 168.577 38.023 Q 167.625 40.745 167.236 43.994 Z M 463.24 69.836 A 4.407 4.407 0 0 0 462.939 71.484 A 4.983 4.983 0 0 0 462.957 71.902 A 3.707 3.707 0 0 0 464.038 74.292 A 3.445 3.445 0 0 0 464.303 74.531 Q 464.95 75.057 465.848 75.261 A 5.594 5.594 0 0 0 467.09 75.391 Q 469.043 75.391 470.166 74.292 A 3.603 3.603 0 0 0 471.074 72.863 A 4.25 4.25 0 0 0 471.289 71.484 A 4.09 4.09 0 0 0 470.166 68.579 A 3.643 3.643 0 0 0 468.386 67.537 A 5.148 5.148 0 0 0 467.09 67.383 Q 465.137 67.383 464.038 68.579 A 4.09 4.09 0 0 0 463.24 69.836 Z M 487.289 5.331 A 4.244 4.244 0 0 0 487.012 6.885 A 5.009 5.009 0 0 0 487.014 7.052 A 3.837 3.837 0 0 0 488.086 9.668 A 3.498 3.498 0 0 0 489.783 10.646 A 4.957 4.957 0 0 0 491.016 10.791 A 5.251 5.251 0 0 0 491.948 10.712 A 3.658 3.658 0 0 0 493.97 9.668 A 3.759 3.759 0 0 0 494.802 8.389 A 4.13 4.13 0 0 0 495.068 6.885 A 3.907 3.907 0 0 0 493.97 4.077 A 3.57 3.57 0 0 0 492.301 3.091 A 4.855 4.855 0 0 0 491.016 2.93 A 5.137 5.137 0 0 0 490.111 3.006 A 3.547 3.547 0 0 0 488.086 4.077 A 3.891 3.891 0 0 0 487.289 5.331 Z"/>
	</g>
</svg>