<svg viewBox="-20 -10 800 105" xmlns="http://www.w3.org/2000/svg"><path fill="#fff" stroke-width="7.000000000000001" stroke-linejoin="round" stroke="#000" d="M75.6 55.972l-21 36.372h-42l-21-36.372 21-36.372h42z"/><path fill="#fff" d="M-12.04 39.2h67.2v33.6h-67.2z"/><path fill="#f47c06" d="M-12.04 53.2H33.6v5.6h-45.64z"/><g stroke-linecap="round" fill-rule="evenodd" font-size="12" stroke="#000" stroke-width=".945"><path d="M514.404 0v31.104q2.881-4.737 7.373-7.325 4.493-2.588 9.815-2.588a23.918 23.918 0 014.83.456q2.86.59 5.025 1.945a12.325 12.325 0 012.791 2.385 15.145 15.145 0 012.81 4.995q1.362 3.902 1.39 9.36V75h-5.811V40.283a27.558 27.558 0 00-.257-3.697q-.623-4.358-2.746-6.85-2.462-2.888-7.381-3.37a21.232 21.232 0 00-2.067-.096 14.779 14.779 0 00-9.595 3.393 18.898 18.898 0 00-5.04 6.423 24.055 24.055 0 00-1.137 2.732V75h-5.81V0h5.81zm-19.238 36.963h-5.859a9.277 9.277 0 00-3.079-7.023 12.626 12.626 0 00-.803-.692 13.971 13.971 0 00-6.213-2.761 19.41 19.41 0 00-3.577-.315 21.076 21.076 0 00-3.81.324q-3.193.587-5.443 2.239a9.076 9.076 0 00-2.195 2.238 7.749 7.749 0 00-1.296 4.427 8.591 8.591 0 00.408 2.716 6.901 6.901 0 002.497 3.412 12.464 12.464 0 001.979 1.177q2.212 1.083 5.731 2.065a71.909 71.909 0 002.886.738 89.751 89.751 0 014.226 1.094q3.937 1.13 6.478 2.349a20.807 20.807 0 01.819.414 18.879 18.879 0 012.788 1.803q1.799 1.418 2.901 3.129a11.437 11.437 0 011.615 4.192 15.57 15.57 0 01.24 2.79q0 6.466-5.041 10.423a16.471 16.471 0 01-.355.271 19.354 19.354 0 01-6.887 3.181q-3.261.823-7.199.823a31.094 31.094 0 01-6.4-.622q-4.115-.866-7.289-2.935a18.713 18.713 0 01-1.277-.911q-5.738-4.468-5.738-11.304h5.86q.342 5.127 4.321 7.983a14.28 14.28 0 004.703 2.165q1.949.519 4.248.649a27.892 27.892 0 001.572.043q4.881 0 8.264-1.718a12.433 12.433 0 001.599-.968 10.171 10.171 0 002.14-2.013 7.562 7.562 0 001.62-4.774q0-4.203-3.267-6.808a10.827 10.827 0 00-.225-.174 16.287 16.287 0 00-2.818-1.677q-2.894-1.378-7.124-2.323a54.116 54.116 0 00-.58-.126 78.007 78.007 0 01-4.087-.974q-4.157-1.118-6.826-2.444-3.365-1.672-5.225-3.985a10.85 10.85 0 01-.537-.727 10.834 10.834 0 01-1.687-4.325 14.54 14.54 0 01-.193-2.413q0-6.25 5.225-10.327a18.73 18.73 0 017.675-3.504 26.913 26.913 0 015.704-.574 29.1 29.1 0 015.901.565q3.757.778 6.658 2.629a17.121 17.121 0 011.625 1.177 13.891 13.891 0 015.3 10.106 17.566 17.566 0 01.047 1.295zM195.068 75h-6.25q-.879-2.49-1.123-7.373a20.376 20.376 0 01-7.837 6.177 24.002 24.002 0 01-10.083 2.173 22.255 22.255 0 01-5.406-.623 15.924 15.924 0 01-6.923-3.625 13.741 13.741 0 01-4.693-9.94 17.342 17.342 0 01-.019-.803q0-7.286 5.728-11.698a18.748 18.748 0 01.693-.509q4.991-3.491 13.034-4.269a50.567 50.567 0 014.862-.223h10.595v-6.006a14.824 14.824 0 00-.45-3.759 10.512 10.512 0 00-3.041-5.152 11.177 11.177 0 00-4.271-2.429q-1.714-.55-3.793-.73a24.499 24.499 0 00-2.116-.088 19.596 19.596 0 00-4.613.516 14.254 14.254 0 00-5.495 2.609 11.853 11.853 0 00-2.32 2.354 8.577 8.577 0 00-1.684 5.166l-5.859-.049q0-6.299 5.859-10.913a21.35 21.35 0 0110.423-4.344 28.392 28.392 0 013.982-.271 28.594 28.594 0 015.634.523q3.408.685 6.056 2.27a15.913 15.913 0 012.25 1.626 14.823 14.823 0 014.898 8.758 21.53 21.53 0 01.351 3.571v25a58.552 58.552 0 00.127 4.007q.266 3.853 1.083 6.383a13.19 13.19 0 00.401 1.085V75zm248.926 0h-6.25q-.879-2.49-1.123-7.373a20.376 20.376 0 01-7.837 6.177 24.002 24.002 0 01-10.083 2.173 22.255 22.255 0 01-5.406-.623 15.924 15.924 0 01-6.923-3.625 13.741 13.741 0 01-4.693-9.94 17.342 17.342 0 01-.019-.803q0-7.286 5.728-11.698a18.748 18.748 0 01.693-.509q4.991-3.491 13.034-4.269a50.567 50.567 0 014.862-.223h10.595v-6.006a14.824 14.824 0 00-.451-3.759 10.512 10.512 0 00-3.04-5.152 11.177 11.177 0 00-4.271-2.429q-1.714-.55-3.793-.73a24.499 24.499 0 00-2.117-.088 19.596 19.596 0 00-4.612.516 14.254 14.254 0 00-5.495 2.609 11.853 11.853 0 00-2.32 2.354 8.577 8.577 0 00-1.684 5.166l-5.859-.049q0-6.299 5.859-10.913a21.35 21.35 0 0110.423-4.344 28.392 28.392 0 013.981-.271 28.594 28.594 0 015.635.523q3.408.685 6.056 2.27a15.913 15.913 0 012.25 1.626 14.823 14.823 0 014.898 8.758 21.53 21.53 0 01.351 3.571v25a58.552 58.552 0 00.127 4.007q.266 3.853 1.083 6.383a13.19 13.19 0 00.401 1.085V75zm-97.51-26.221v-.683q0-9.403 3.208-15.883a23.536 23.536 0 012.286-3.722 17.415 17.415 0 0112.622-7.186 22.573 22.573 0 012.295-.114q10.693 0 16.308 8.448V0h5.811v75h-5.469l-.244-7.031q-5.615 8.008-16.504 8.008a18.285 18.285 0 01-8.015-1.725q-3.585-1.72-6.343-5.158a23.019 23.019 0 01-.364-.466q-4.804-6.315-5.48-16.435a51.26 51.26 0 01-.111-3.414zm-203.955-.488v.83a45.233 45.233 0 01-.646 7.89q-.771 4.348-2.462 7.837a23.284 23.284 0 01-2.36 3.878q-5.293 7.017-14.061 7.243a22.798 22.798 0 01-.588.008q-10.84 0-16.601-7.618v26.954H100V22.168h5.42l.293 7.471q5.713-8.448 16.553-8.448a20.027 20.027 0 016.901 1.14 17.237 17.237 0 017.967 6.038q4.305 5.727 5.175 14.997a52.738 52.738 0 01.22 4.925zm108.985 0v.83a45.233 45.233 0 01-.647 7.89q-.771 4.348-2.462 7.837a23.284 23.284 0 01-2.36 3.878q-5.293 7.017-14.061 7.243a22.798 22.798 0 01-.588.008q-10.839 0-16.601-7.618v26.954h-5.811V22.168h5.42l.293 7.471q5.713-8.448 16.553-8.448a20.027 20.027 0 016.901 1.14 17.237 17.237 0 017.967 6.038q4.305 5.727 5.175 14.997a52.738 52.738 0 01.221 4.925zm9.716 1.807v-2.1a33.827 33.827 0 01.935-8.09 28.471 28.471 0 012.02-5.631 24.465 24.465 0 014.876-6.885 22.569 22.569 0 013.351-2.709 20.297 20.297 0 0111.426-3.492 22.69 22.69 0 016.908 1.003 18.031 18.031 0 018.351 5.565 22.112 22.112 0 014.481 8.621q1.158 4.168 1.158 9.323v3.272h-37.695v1.123a25.792 25.792 0 00.968 7.226 20.478 20.478 0 004.183 7.739 17.116 17.116 0 005.918 4.533 16.885 16.885 0 007.046 1.449 21.85 21.85 0 004.348-.414 16.923 16.923 0 003.929-1.295 16.436 16.436 0 004.029-2.752 22 22 0 002.489-2.717l3.662 2.783a20.677 20.677 0 01-15.013 9.099 28.949 28.949 0 01-3.688.228 23.474 23.474 0 01-9.108-1.753 22.49 22.49 0 01-3.075-1.568q-5.444-3.32-8.471-9.253a27.892 27.892 0 01-2.903-10.369 33.923 33.923 0 01-.125-2.936zm345.313-1.123v-1.172a33.827 33.827 0 01.935-8.091 28.471 28.471 0 012.019-5.63 23.293 23.293 0 015.072-6.978 21.873 21.873 0 013.278-2.519q5.395-3.394 12.231-3.394a24.408 24.408 0 018.325 1.366 21.145 21.145 0 018.765 6.032q6.543 7.397 6.543 19.604v1.221a34.193 34.193 0 01-.935 8.138 28.638 28.638 0 01-2.019 5.656 23.23 23.23 0 01-4.498 6.426 21.126 21.126 0 01-3.827 3.022 22.358 22.358 0 01-10.454 3.262 27.369 27.369 0 01-1.802.059 24.209 24.209 0 01-8.434-1.416 21.275 21.275 0 01-8.632-5.982 25.278 25.278 0 01-5.719-11.452 37.075 37.075 0 01-.848-8.152zM340.674 21.826l-.147 5.322a20.856 20.856 0 00-2.793-.314 24.572 24.572 0 00-1.162-.027q-5.468 0-9.253 3.051a14.645 14.645 0 00-3.727 4.597q-1.014 1.905-1.668 4.266V75h-5.811V22.168h5.713l.098 8.398a18.475 18.475 0 013.75-5.24q3.792-3.618 9.479-4.07a20.989 20.989 0 011.663-.065q2.442 0 3.858.635zM612.402 48.34v1.074a30.014 30.014 0 00.749 6.883 21.392 21.392 0 004.159 8.669q4.907 6.079 12.866 6.079a16.654 16.654 0 006.756-1.336 16.035 16.035 0 006.061-4.743 21.206 21.206 0 004.034-8.327q.873-3.511.873-7.713v-1.123a28.379 28.379 0 00-.921-7.337 24.904 24.904 0 00-1.325-3.747q-2.246-5.03-6.299-7.788-4.052-2.759-9.277-2.759a16.098 16.098 0 00-7.266 1.617q-3.068 1.525-5.459 4.488a20.375 20.375 0 00-.019.023q-4.791 5.953-4.928 15.477a39.202 39.202 0 00-.004.563zM105.811 36.377v25.342a16.69 16.69 0 002.885 4.376 14.691 14.691 0 003.12 2.557 16.102 16.102 0 006.041 2.159 21.038 21.038 0 003.188.234 14.735 14.735 0 005.455-.971q3.594-1.419 6.044-4.913a19.677 19.677 0 002.594-5.405q.814-2.575 1.195-5.705a49.338 49.338 0 00.337-5.955q0-7.276-2.151-12.351a19.179 19.179 0 00-1.999-3.616 13.15 13.15 0 00-9.496-5.737 17.163 17.163 0 00-2.077-.122 18.648 18.648 0 00-4.666.559 14.712 14.712 0 00-4.562 2.028 15.312 15.312 0 00-4.652 4.998 19.959 19.959 0 00-1.256 2.522zm108.984 0v25.342a16.69 16.69 0 002.885 4.376 14.691 14.691 0 003.121 2.557 16.102 16.102 0 006.04 2.159 21.038 21.038 0 003.188.234 14.735 14.735 0 005.455-.971q3.595-1.419 6.044-4.913a19.677 19.677 0 002.594-5.405q.814-2.575 1.196-5.705a49.338 49.338 0 00.336-5.955q0-7.276-2.15-12.351a19.179 19.179 0 00-2-3.616 13.15 13.15 0 00-9.495-5.737 17.163 17.163 0 00-2.077-.122 18.648 18.648 0 00-4.667.559 14.712 14.712 0 00-4.562 2.028 15.312 15.312 0 00-4.651 4.998 19.959 19.959 0 00-1.257 2.522zm168.408 25V36.572q-4.283-9.718-14.041-10.269a21.156 21.156 0 00-1.193-.033q-7.304 0-11.397 5.677a16.638 16.638 0 00-.078.109 19.103 19.103 0 00-2.559 5.296q-.813 2.559-1.198 5.692a50.026 50.026 0 00-.344 6.077q0 7.136 2.02 12.143a19.278 19.278 0 002.032 3.799 12.854 12.854 0 009.203 5.693 16.852 16.852 0 002.223.142 18.941 18.941 0 006.409-1.025q5.138-1.836 8.116-6.964a21.333 21.333 0 00.807-1.532zm210.693-39.209V75h-5.859V22.168h5.859zM187.646 60.4V48.779h-10.449q-8.74.098-13.672 3.199a11.645 11.645 0 00-2.858 2.466 9.27 9.27 0 00-2.073 6.054 9.775 9.775 0 00.93 4.294 9.796 9.796 0 002.366 3.079 11.352 11.352 0 005.466 2.644 16.068 16.068 0 003.103.286 20.706 20.706 0 006.678-1.052 18.676 18.676 0 003.796-1.78q4.614-2.832 6.713-7.569zm248.926 0V48.779h-10.449q-8.74.098-13.672 3.199a11.645 11.645 0 00-2.858 2.466 9.27 9.27 0 00-2.073 6.054 9.775 9.775 0 00.93 4.294 9.796 9.796 0 002.365 3.079 11.352 11.352 0 005.467 2.644 16.068 16.068 0 003.103.286 20.706 20.706 0 006.678-1.052 18.676 18.676 0 003.795-1.78q4.615-2.832 6.714-7.569zM267.236 43.994h31.69v-.635a24.204 24.204 0 00-.78-5.518 17.331 17.331 0 00-3.566-6.884 13.299 13.299 0 00-9.72-4.756 17.642 17.642 0 00-1.022-.029 14.551 14.551 0 00-10.681 4.391 17.777 17.777 0 00-.428.443 19.596 19.596 0 00-4.152 7.017q-.952 2.722-1.341 5.971zM563.24 69.836a4.407 4.407 0 00-.301 1.648 4.983 4.983 0 00.018.418 3.707 3.707 0 001.081 2.39 3.445 3.445 0 00.265.239q.647.526 1.545.73a5.594 5.594 0 001.242.13q1.953 0 3.076-1.099a3.603 3.603 0 00.908-1.429 4.25 4.25 0 00.215-1.379 4.09 4.09 0 00-1.123-2.905 3.643 3.643 0 00-1.78-1.042 5.148 5.148 0 00-1.296-.154q-1.953 0-3.052 1.196a4.09 4.09 0 00-.798 1.257zm24.049-64.505a4.244 4.244 0 00-.277 1.554 5.009 5.009 0 00.002.167 3.837 3.837 0 001.072 2.616 3.498 3.498 0 001.697.978 4.957 4.957 0 001.233.145 5.251 5.251 0 00.932-.079 3.658 3.658 0 002.022-1.044 3.759 3.759 0 00.832-1.279 4.13 4.13 0 00.266-1.504 3.907 3.907 0 00-1.098-2.808 3.57 3.57 0 00-1.669-.986 4.855 4.855 0 00-1.285-.161 5.137 5.137 0 00-.905.076 3.547 3.547 0 00-2.025 1.071 3.891 3.891 0 00-.797 1.254z"/></g></svg>